<svg version="1.2" xmlns="http://www.w3.org/2000/svg" viewBox="0 0 910 277" width="910" height="277">
    <defs>
        <clipPath clipPathUnits="userSpaceOnUse" id="cp1">
            <path d="m0 0h910v277h-910z"/>
        </clipPath>
    </defs>
    <g clip-path="url(#cp1)">
        <path d="m152.5 164.9l78.1 78.1-13.1 13-78.1-78.1z"/>
        <path d="m178.5 138.9l78.1 78.1-13 13-78.1-78.1z"/>
        <path d="m35.3 47.8l78.1 78.1-13 13-78.1-78.1z"/>
        <path d="m61.3 21.7l78.1 78.1-13 13.1-78.1-78.1z"/>
        <path d="m230.6 34.8l-78.1 78-13.1-13 78.1-78.1z"/>
        <path d="m256.6 60.8l-78.1 78.1-13-13 78.1-78.1z"/>
        <path d="m113.4 151.9l-78.1 78.1-13-13 78.1-78.1z"/>
        <path d="m139.4 177.9l-78.1 78.1-13-13 78.1-78.1z"/>
        <path d="m111.8 0.8h18.4v55.2h-18.4z"/>
        <path d="m148.6 0.8h18.5v55.2h-18.5z"/>
        <path d="m111.8 221.7h18.4v55.2h-18.4z"/>
        <path d="m148.6 221.7h18.5v55.2h-18.5z"/>
        <path d="m277.5 129.7h-55.2v-18.4h55.2z"/>
        <path d="m277.5 166.5h-55.2v-18.4h55.2z"/>
        <path d="m1.4 111.3h55.2v18.4h-55.2z"/>
        <path d="m1.4 148.1h55.2v18.4h-55.2z"/>
        <path fill-rule="evenodd" d="m869.3 219.1c2.4 4.7 7.2 8.4 13.7 8.4 5.3 0 8.8-1.9 8.8-5.4 0-3-1.5-4.1-11.1-6.4l-1.6-0.4c-14.4-3.3-22.2-8.7-22.2-20 0-10.1 8.6-19.5 24.9-19.5 14 0 23.4 5.5 26.7 16.3l-7.2 2.9-7.2 2.6c-1.5-4.8-6.1-8.4-12.5-8.4-5.8 0-9 2.6-9 5.3 0 3.3 2.4 4.7 11.6 6.7l1.1 0.3c16.4 3.6 22.5 9.5 22.5 20.1 0 10.6-9.2 19.5-24.5 19.5-14.5 0-23.5-6.6-28.4-16l7.4-3zm9-24.4c-0.3 0-0.2 0-0.2-0.2 0 0.1 0 0.2 0.2 0.2zm-32.1 19h-44.4c1.7 7.9 7.5 12.6 15.5 12.6 6.8 0 11.4-2.7 15.6-8l12.2 8.8c-7 8.7-14.9 14-28.8 14-19.4 0-31.1-14.6-31.1-32.9 0-17.6 11.7-32.4 31.1-32.4 18.6 0 30.3 13.4 30.3 31 0 2.2 0 4.5-0.4 6.9zm-16-11.4c-1.5-7.5-7-11.3-13.4-11.3-7.7 0-13 4.1-14.8 11.3zm-115.1-25.1h16.5v2.4c3.9-2.5 8.6-3.7 13.6-3.7 18.8 0 28.5 12.2 28.5 28.4v35.4h-16.2v-35.4c0-7.3-4.8-13.1-12.9-13.1-7.9 0-11.6 4.8-13 7.1v41.4h-16.5zm-73.1 0h16.6v2.4c3.8-2.5 8.6-3.6 13.6-3.6 18.7 0 28.5 12.1 28.5 28.4v35.4h-16.3v-35.4c0-7.4-4.7-13.2-12.8-13.2-7.9 0-11.7 4.8-13 7.2v41.4h-16.6zm-12.5 36.5h-44.4c1.8 7.8 7.6 12.6 15.6 12.6 6.7 0 11.3-2.8 15.6-8l12.1 8.7c-7 8.8-14.9 14.1-28.7 14.1-19.4 0-31.2-14.7-31.2-32.9 0-17.7 11.8-32.4 31.2-32.4 18.6 0 30.2 13.4 30.2 31 0 2.1 0 4.5-0.4 6.9zm-16-11.4c-1.5-7.5-7-11.4-13.3-11.4-7.8 0-13.1 4.1-14.8 11.4zm-107.5-46.2h27c13.5 0 26.9 10.5 26.9 26.3v0.1c0 9.3-4.9 18.9-14.2 23.7l16 33.5h-17.2l-14.4-30.7h-7.6v30.7h-16.5zm24.3 37.2c8 0 13.2-3.5 13.3-10.8-0.1-6.5-5.4-10.8-13.3-10.8h-7.8v21.6z"/><path fill-rule="evenodd" d="m880.8 19h17.8l-12.5 20.7h-16.5zm27.6 59c0-17.6-11.6-31-30.2-31-19.4 0-31.2 14.8-31.2 32.4 0 18.3 11.8 32.9 31.2 32.9 13.8 0 21.7-5.2 28.7-14l-12.1-8.8c-4.3 5.3-8.9 8-15.6 8-8 0-13.8-4.7-15.6-12.6h44.4c0.4-2.4 0.4-4.7 0.4-6.9zm-44.5-4.5c1.8-7.2 7-11.3 14.8-11.3 6.3 0 11.8 3.8 13.3 11.3zm-55.4 37.4h16v-47.4h17.4v-15.1h-17.4v-19h-16v19h-12.5v15.1h12.5zm-39.3-74.4h16.5v-17h-16.5zm0.2 74.4h16.1v-62.5h-16.1zm-58.9-17.6l-7.3 3c4.8 9.4 13.9 16 28.4 16 15.2 0 24.5-8.8 24.5-19.5 0-10.6-6.2-16.5-22.5-20.1l-1.2-0.3c-9.2-2-11.6-3.3-11.6-6.7 0-2.6 3.3-5.3 9-5.3 6.4 0 11 3.7 12.5 8.4l7.3-2.6 7.1-2.9c-3.3-10.7-12.6-16.2-26.6-16.2-16.4 0-24.9 9.3-24.9 19.5 0 11.2 7.7 16.6 22.1 20l1.6 0.3c9.7 2.3 11.2 3.4 11.2 6.4 0 3.5-3.5 5.4-8.9 5.4-6.5 0-11.3-3.6-13.6-8.4zm15.9-27.6c0 0.2-0.1 0.2 0.3 0.2-0.3 0-0.3-0.1-0.3-0.2zm-65.9 45.3h16.8v-41.6l19.2-7.5v-16.2l-19.2 7.4v-4.7h-16.8zm-12.4-33c0-17.6-11.6-31-30.2-31-19.4 0-31.2 14.7-31.2 32.4 0 18.2 11.8 32.9 31.2 32.9 13.8 0 21.7-5.3 28.7-14l-12.1-8.8c-4.3 5.3-8.9 8-15.6 8-8.1 0-13.8-4.7-15.6-12.6h44.4c0.4-2.4 0.4-4.8 0.4-6.9zm-44.5-4.5c1.7-7.3 7-11.4 14.8-11.4 6.3 0 11.8 3.9 13.3 11.4zm-45.6 37.4l23.6-62.5h-17.2l-15.4 40.9-16.3-40.9h-17.2l25.4 62.5zm-68.5-74.4h16.6v-17h-16.6zm0.3 74.4h16v-62.5h-16zm-73.5 0h16.5v-41.4c1.3-2.3 5.1-7.1 13-7.1 8.1 0 12.9 5.8 12.9 13.1v35.4h16.2v-35.4c0-16.2-9.7-28.4-28.5-28.4-5 0-9.8 1.2-13.6 3.7v-2.4h-16.5zm-83.6-83.5v50.4c0 20.5 13 34.4 33.9 34.4 20.9 0 34-13.9 34-34.4v-50.4h-16.5v50.4c0 11.3-6.5 18.1-17.5 18.1-11 0-17.4-6.8-17.4-18.1v-50.4z"/><path fill-rule="evenodd" d="m467 213.7h-44.4c1.8 7.9 7.5 12.6 15.5 12.6 6.8 0 11.4-2.7 15.7-8l12.1 8.8c-7 8.7-14.9 14-28.8 14-19.3 0-31.1-14.6-31.1-32.9 0-17.6 11.8-32.4 31.1-32.4 18.7 0 30.3 13.4 30.3 31 0 2.2 0 4.5-0.4 6.9zm-16-11.4c-1.5-7.5-7-11.3-13.4-11.3-7.7 0-13 4.1-14.7 11.3zm-71.8 34.8c-5.1 3.1-10 4-14.5 4-19.3 0-32-13.6-32-32.6 0-19.3 14-32.7 32-32.7 5 0 9.8 1.1 14.5 3.1v-31.1h16.8v91.9h-16.8zm-12.9-11.2c5.9 0 9.7-2 12.9-5v-25.8c-3.7-2.4-8.2-4-12.6-4-9.5 0-17.4 6.3-17.4 17.4 0 11.1 8 17.4 17.1 17.4z"/>
    </g>
</svg>