<svg width="38" height="38" viewBox="0 0 38 38" fill="none" xmlns="http://www.w3.org/2000/svg">
<path d="M14.8333 10.838C14.8333 10.4573 14.4387 10.2075 14.1079 10.396C11.1193 12.099 9.10417 15.3142 9.10417 19C9.10417 24.4654 13.5347 28.8959 19 28.8959C24.4653 28.8959 28.8958 24.4654 28.8958 19C28.8958 15.3142 26.8807 12.099 23.8921 10.396C23.5613 10.2075 23.1667 10.4573 23.1667 10.838V13.4088C23.1667 13.569 23.2413 13.7195 23.3638 13.8228C24.8358 15.0648 25.7708 16.9232 25.7708 19C25.7708 22.7395 22.7394 25.7709 19 25.7709C15.2606 25.7709 12.2292 22.7395 12.2292 19C12.2292 16.9232 13.1642 15.0648 14.6362 13.8228C14.7587 13.7195 14.8333 13.569 14.8333 13.4088V10.838Z" fill="#7058FF"/>
<path d="M20.5625 8.58337C20.5625 7.72043 19.8629 7.02087 19 7.02087C18.1371 7.02087 17.4375 7.72043 17.4375 8.58337V19C17.4375 19.863 18.1371 20.5625 19 20.5625C19.8629 20.5625 20.5625 19.863 20.5625 19V8.58337Z" fill="#7058FF"/>
<path fill-rule="evenodd" clip-rule="evenodd" d="M0.770836 19C0.770836 8.93235 8.93231 0.770874 19 0.770874C29.0677 0.770874 37.2292 8.93235 37.2292 19C37.2292 29.0677 29.0677 37.2292 19 37.2292C8.93231 37.2292 0.770836 29.0677 0.770836 19ZM19 3.89587C10.6582 3.89587 3.89584 10.6582 3.89584 19C3.89584 27.3418 10.6582 34.1042 19 34.1042C27.3418 34.1042 34.1042 27.3418 34.1042 19C34.1042 10.6582 27.3418 3.89587 19 3.89587Z" fill="#7058FF"/>
</svg>
