<svg width="50" height="50" viewBox="0 0 50 50" fill="none" xmlns="http://www.w3.org/2000/svg">
<path fill-rule="evenodd" clip-rule="evenodd" d="M16.1458 15.625C16.1458 10.735 20.11 6.77081 25 6.77081C29.89 6.77081 33.8542 10.735 33.8542 15.625C33.8542 20.515 29.89 24.4791 25 24.4791C20.11 24.4791 16.1458 20.515 16.1458 15.625ZM25 9.89581C21.8359 9.89581 19.2708 12.4608 19.2708 15.625C19.2708 18.7891 21.8359 21.3541 25 21.3541C28.1641 21.3541 30.7292 18.7891 30.7292 15.625C30.7292 12.4608 28.1641 9.89581 25 9.89581Z" fill="#7058FF"/>
<path fill-rule="evenodd" clip-rule="evenodd" d="M16.6667 30.7291C14.0778 30.7291 11.9792 32.8278 11.9792 35.4166V37.8922C11.9792 37.9299 12.0065 37.9621 12.0437 37.9681C20.6244 39.3691 29.3756 39.3691 37.9563 37.9681C37.9935 37.9621 38.0208 37.9299 38.0208 37.8922V35.4166C38.0208 32.8278 35.9222 30.7291 33.3333 30.7291H32.6232C32.5683 30.7291 32.5137 30.7378 32.4615 30.7549L30.6584 31.3437C26.9816 32.5442 23.0184 32.5442 19.3416 31.3437L17.5385 30.7549C17.4863 30.7378 17.4317 30.7291 17.3768 30.7291H16.6667ZM8.85416 35.4166C8.85416 31.1019 12.3519 27.6041 16.6667 27.6041H17.3768C17.7612 27.6041 18.1431 27.6649 18.5085 27.7842L20.3116 28.373C23.3581 29.3678 26.6419 29.3678 29.6884 28.373L31.4915 27.7842C31.8569 27.6649 32.2388 27.6041 32.6232 27.6041H33.3333C37.6481 27.6041 41.1458 31.1019 41.1458 35.4166V37.8922C41.1458 39.4615 40.0086 40.7995 38.4598 41.0523C29.5456 42.5077 20.4544 42.5077 11.5401 41.0523C9.99142 40.7995 8.85416 39.4615 8.85416 37.8922V35.4166Z" fill="#7058FF"/>
</svg>
